<svg xmlns="http://www.w3.org/2000/svg" viewBox="0 0 512.00001 512.00001" height="512" width="512"><path d="M145 235.236L241.584 291 145 346.762 48.416 291zM153 109.855l96.584 55.764v111.526L153 221.38zM249.584 304.855v111.526L153 472.145V360.619zM257.584 40.238L354.166 96l-96.582 55.76L161 96zM40.416 304.855L137 360.62v111.526L40.416 416.38zM474.75 174.855v111.526l-96.584 55.764V230.619zM378.166 109.855l88.584 51.144-88.584 51.145zM362.166 239.855v111.526l-96.584 55.764V295.619zM362.166 109.855v111.526l-96.584 55.764V165.619z"/></svg>
