<svg xmlns="http://www.w3.org/2000/svg" viewBox="0 0 512.00001 512.00001" height="512" width="512"><rect width="512" height="512" ry="0" fill="#fff"/><path d="M174.292 238.812l79.216 45.737-79.216 45.735-79.217-45.735zm6.561-102.835l79.216 45.737v91.471l-79.216-45.737zm79.216 159.935v91.472l-79.216 45.736V341.65zm6.562-217.033l79.214 45.735-79.214 45.733-79.217-45.733zM88.514 295.912l79.216 45.738v91.471l-79.216-45.738zM444.746 189.29v91.471l-79.216 45.737v-91.471zm-79.216-53.312l72.655 41.948-72.655 41.948zm-13.123 106.624v91.471L273.19 379.81v-91.472zm0-106.624v91.472l-79.216 45.736v-91.471z" fill="#ff8d47"/></svg>