<svg xmlns="http://www.w3.org/2000/svg" viewBox="0 0 512.00001 512.00001" height="512" width="512"><rect width="512" height="512" ry="0" fill="#fff"/><path d="M145 235.236L241.584 291 145 346.762 48.416 291zm8-125.381l96.584 55.764v111.526L153 221.38zm96.584 195v111.526L153 472.145V360.619zm8-264.617L354.166 96l-96.582 55.76L161 96zM40.416 304.855L137 360.62v111.526L40.416 416.38zm434.334-130v111.526l-96.584 55.764V230.619zm-96.584-65l88.584 51.144-88.584 51.145zm-16 130v111.526l-96.584 55.764V295.619zm0-130v111.526l-96.584 55.764V165.619z" fill="#ff8d47"/></svg>